<?xml version="1.0" encoding="utf-8"?>
<!-- Generator: Adobe Illustrator 18.1.0, SVG Export Plug-In . SVG Version: 6.00 Build 0)  -->
<svg version="1.1" id="Layer_1" xmlns="http://www.w3.org/2000/svg" xmlns:xlink="http://www.w3.org/1999/xlink" x="0px" y="0px"
	 viewBox="0 0 376 72" enable-background="new 0 0 376 72" xml:space="preserve">
<g id="nexus_color">
	<g>
		<path fill="#162E55" d="M78.8,36.6L78.8,36.6c0-8.3,6.3-15.2,15-15.2c5.4,0,8.6,1.9,11.6,4.6l-2.3,2.4c-2.5-2.3-5.3-4-9.3-4
			c-6.6,0-11.5,5.3-11.5,12v0.1c0,6.8,5,12.1,11.5,12.1c4.1,0,6.8-1.5,9.6-4.2l2.2,2.1c-3.1,3.1-6.5,5.1-11.9,5.1
			C85.1,51.6,78.8,45,78.8,36.6z"/>
		<path fill="#162E55" d="M108.2,44.8L108.2,44.8c0-4.7,3.8-7.1,9.4-7.1c2.8,0,4.8,0.4,6.7,0.9V38c0-3.8-2.4-5.8-6.5-5.8
			c-2.6,0-4.6,0.6-6.7,1.5l-1-2.6c2.4-1.1,4.8-1.8,8-1.8c3.1,0,5.5,0.8,7.1,2.4c1.5,1.5,2.3,3.6,2.3,6.3v13.2h-3.2v-3.2
			c-1.5,1.9-4,3.7-7.9,3.7C112.3,51.6,108.2,49.3,108.2,44.8z M124.3,43.2v-2c-1.6-0.5-3.7-0.9-6.4-0.9c-4.1,0-6.4,1.8-6.4,4.3v0.1
			c0,2.7,2.5,4.3,5.5,4.3C121.1,49,124.3,46.6,124.3,43.2z"/>
		<path fill="#162E55" d="M133.4,29.5h3.3v3.6c1.4-2.1,3.4-4.1,7.1-4.1c3.6,0,5.9,1.9,7.1,4.3c1.6-2.4,3.9-4.3,7.7-4.3
			c5.1,0,8.2,3.3,8.2,8.7v13.4h-3.3V38.5c0-4.2-2.1-6.5-5.7-6.5c-3.3,0-6.1,2.4-6.1,6.7v12.4h-3.2V38.4c0-4-2.2-6.4-5.7-6.4
			c-3.5,0-6.1,2.8-6.1,6.8v12.3h-3.3V29.5z"/>
		<path fill="#162E55" d="M172.8,29.5h3.3v4.3c1.8-2.6,4.4-4.8,8.4-4.8c5.3,0,10.5,4.1,10.5,11.2v0.1c0,7.1-5.2,11.2-10.5,11.2
			c-4.1,0-6.7-2.2-8.4-4.6v10.8h-3.3V29.5z M191.6,40.4L191.6,40.4c0-5.2-3.6-8.4-7.7-8.4c-4.1,0-7.9,3.4-7.9,8.3v0.1
			c0,5,3.9,8.3,7.9,8.3C188.1,48.7,191.6,45.6,191.6,40.4z"/>
		<path fill="#162E55" d="M199.6,42.9V29.5h3.3v12.6c0,4,2.2,6.5,6.1,6.5c3.7,0,6.6-2.7,6.6-6.8V29.5h3.2v21.6h-3.2v-3.8
			c-1.5,2.3-3.7,4.2-7.5,4.2C202.7,51.6,199.6,48.1,199.6,42.9z"/>
		<path fill="#162E55" d="M223.2,48.3l1.7-2.3c2.4,1.8,5,2.8,7.6,2.8c2.6,0,4.5-1.3,4.5-3.4v-0.1c0-2.2-2.6-3-5.5-3.8
			c-3.4-1-7.3-2.1-7.3-6.1v-0.1c0-3.7,3.1-6.2,7.5-6.2c2.7,0,5.7,0.9,7.9,2.4l-1.5,2.4c-2-1.3-4.4-2.1-6.5-2.1
			c-2.6,0-4.2,1.3-4.2,3.1v0.1c0,2,2.7,2.8,5.7,3.7c3.4,1,7.1,2.3,7.1,6.2V45c0,4.1-3.4,6.5-7.8,6.5
			C229.2,51.5,225.7,50.3,223.2,48.3z"/>
		<path fill="#162E55" d="M245.1,21.9h6l13.9,18v-18h6.5v29.2h-5.6l-14.4-18.6v18.6h-6.5V21.9z"/>
		<path fill="#162E55" d="M275.8,40L275.8,40c0-6.5,4.6-11.7,11.3-11.7c7.6,0,11.1,5.8,11.1,12.1c0,0.5,0,1.1-0.1,1.7h-15.8
			c0.6,2.9,2.7,4.4,5.6,4.4c2.2,0,3.7-0.7,5.5-2.3l3.7,3.2c-2.1,2.6-5.2,4.2-9.3,4.2C280.9,51.6,275.8,46.9,275.8,40z M291.9,38.2
			c-0.4-2.8-2.1-4.8-4.8-4.8c-2.7,0-4.4,1.9-4.9,4.8H291.9z"/>
		<path fill="#162E55" d="M310.1,44.1l-4.6,7h-6.8l8-11.3l-7.7-11h6.9l4.2,6.6l4.3-6.6h6.8l-7.7,10.9l8,11.4h-6.9L310.1,44.1z"/>
		<path fill="#162E55" d="M324.2,43.2V28.7h6.5v12.5c0,3,1.4,4.5,3.9,4.5c2.5,0,4-1.5,4-4.5V28.7h6.5v22.4h-6.5v-3.2
			c-1.5,1.9-3.4,3.6-6.7,3.6C327.1,51.5,324.2,48.3,324.2,43.2z"/>
		<path fill="#162E55" d="M348,48.1l2.8-4.2c2.5,1.8,5.1,2.7,7.2,2.7c1.9,0,2.7-0.7,2.7-1.7v-0.1c0-1.4-2.2-1.8-4.7-2.6
			c-3.2-0.9-6.8-2.4-6.8-6.7v-0.1c0-4.5,3.7-7.1,8.3-7.1c2.9,0,6,1,8.5,2.6l-2.5,4.4c-2.3-1.3-4.5-2.1-6.2-2.1
			c-1.6,0-2.4,0.7-2.4,1.5v0.1c0,1.3,2.2,1.8,4.6,2.7c3.2,1,6.9,2.5,6.9,6.6v0.1c0,5-3.8,7.2-8.7,7.2
			C354.6,51.5,351.1,50.5,348,48.1z"/>
	</g>
	<g>
		<g>
			<path fill="#78A03F" d="M1.4,20.5c0,4.3,1.7,8.3,4.7,11.2l1.2,1.2l5.2-5.2l-1.2-1.2c-1.6-1.6-2.6-3.8-2.6-6.1
				c0-2.3,0.9-4.5,2.5-6.1c1.6-1.6,3.9-2.5,6.2-2.5c2.3,0,4.5,0.9,6.2,2.5l18.8,18.5L52.7,23c0.4-0.3,0.6-0.7,0.8-1.1
				c0.2-0.4,0.3-0.9,0.3-1.4c0-0.5-0.1-0.9-0.3-1.4c-0.4-0.8-1-1.5-1.9-1.9c-0.4-0.2-0.9-0.3-1.4-0.3c-0.5,0-1,0.1-1.4,0.3
				c-0.4,0.2-0.8,0.4-1.2,0.8l-4.8,4.7L29,9.3c-3-3-7.1-4.6-11.5-4.6c-4.3,0-8.4,1.6-11.4,4.6C3.1,12.3,1.4,16.2,1.4,20.5z"/>
			<path fill="#78A03F" d="M66.3,52.5c0-4.3-1.7-8.2-4.7-11.2L60.4,40l-5.2,5.2l1.2,1.2c1.7,1.6,2.6,3.8,2.5,6.1
				c0,2.3-0.9,4.5-2.5,6.1c-1.6,1.6-3.8,2.5-6.2,2.5c-2.3,0-4.5-0.9-6.2-2.5L25.1,40.1L15.1,50c-0.3,0.3-0.6,0.7-0.8,1.1
				C14.1,51.5,14,52,14,52.5c0,0.5,0.1,0.9,0.3,1.4c0.3,0.8,1.1,1.6,1.9,1.9c0.5,0.2,0.9,0.3,1.4,0.3c0.5,0,0.9-0.1,1.4-0.3
				c0.4-0.2,0.8-0.4,1.1-0.8l4.8-4.8l13.8,13.5c3.1,3,7.1,4.6,11.4,4.6c4.3,0,8.4-1.6,11.4-4.6C64.6,60.7,66.3,56.7,66.3,52.5z"/>
		</g>
		<g>
			<path fill="#15375F" d="M51.5,55.7c0.4-0.2,0.8-0.4,1.1-0.7c0.3-0.3,0.6-0.7,0.8-1.1c0.2-0.4,0.3-0.9,0.3-1.4
				c0-0.5-0.1-0.9-0.3-1.4c-0.2-0.4-0.4-0.8-0.8-1.1l-4.8-4.8l13.7-13.5c3-3,4.7-7,4.7-11.2c0-4.2-1.7-8.2-4.7-11.2
				c-3-3-7.1-4.6-11.4-4.6c-4.3,0-8.4,1.6-11.5,4.6l-1.2,1.2l5.3,5.2l1.2-1.2c1.7-1.6,3.9-2.5,6.2-2.5c2.3,0,4.5,0.9,6.2,2.5
				c1.6,1.6,2.5,3.8,2.5,6.1c0,2.3-0.9,4.5-2.6,6.1L37.5,45.1L47.6,55c0.3,0.3,0.7,0.6,1.1,0.7c0.5,0.2,0.9,0.3,1.4,0.3
				C50.6,56,51.1,55.9,51.5,55.7z"/>
			<path fill="#15375F" d="M30.2,62.6L25,57.4l-1.2,1.2c-1.6,1.6-3.8,2.5-6.2,2.5c-2.4,0-4.6-0.9-6.2-2.5c-1.6-1.6-2.6-3.8-2.6-6.1
				c0-2.3,0.9-4.5,2.5-6.1l18.8-18.5L20.1,18c-0.3-0.3-0.7-0.6-1.2-0.8c-0.4-0.2-0.9-0.3-1.4-0.3c-0.5,0-1,0.1-1.4,0.3
				c-0.4,0.2-0.8,0.4-1.2,0.8c-0.3,0.3-0.6,0.7-0.8,1.1C14.1,19.6,14,20,14,20.5c0,0.5,0.1,0.9,0.3,1.3c0.2,0.4,0.4,0.8,0.8,1.1
				l4.8,4.7L6.1,41.2c-3,3-4.7,7-4.7,11.2c0,4.3,1.7,8.2,4.7,11.2c3,3,7.1,4.6,11.4,4.6c4.3,0,8.4-1.6,11.4-4.6L30.2,62.6z"/>
		</g>
	</g>
</g>
<g>
	<path fill="#162E55" d="M371.1,21.9c0.5,0,1,0.1,1.5,0.4c0.5,0.3,0.8,0.6,1.1,1.1c0.3,0.5,0.4,1,0.4,1.5c0,0.5-0.1,1-0.4,1.5
		c-0.3,0.5-0.6,0.8-1.1,1.1s-1,0.4-1.5,0.4s-1-0.1-1.5-0.4s-0.8-0.6-1.1-1.1c-0.3-0.5-0.4-1-0.4-1.5c0-0.5,0.1-1,0.4-1.5
		c0.3-0.5,0.6-0.8,1.1-1.1C370.1,22,370.6,21.9,371.1,21.9z M371.1,22.4c-0.4,0-0.8,0.1-1.2,0.3s-0.7,0.5-0.9,0.9
		c-0.2,0.4-0.3,0.8-0.3,1.2c0,0.4,0.1,0.8,0.3,1.2c0.2,0.4,0.5,0.7,0.9,0.9c0.4,0.2,0.8,0.3,1.2,0.3s0.8-0.1,1.2-0.3
		s0.7-0.5,0.9-0.9c0.2-0.4,0.3-0.8,0.3-1.2c0-0.4-0.1-0.8-0.3-1.2c-0.2-0.4-0.5-0.7-0.9-0.9C371.9,22.5,371.5,22.4,371.1,22.4z
		 M369.8,26.4v-3.2h1.1c0.4,0,0.6,0,0.8,0.1c0.2,0.1,0.3,0.2,0.4,0.3c0.1,0.1,0.2,0.3,0.2,0.5c0,0.2-0.1,0.4-0.3,0.6
		s-0.4,0.3-0.7,0.3c0.1,0,0.2,0.1,0.3,0.2c0.1,0.1,0.3,0.3,0.5,0.6l0.4,0.6h-0.6l-0.3-0.5c-0.2-0.4-0.4-0.6-0.5-0.7
		c-0.1-0.1-0.2-0.1-0.4-0.1h-0.3v1.3H369.8z M370.3,24.7h0.6c0.3,0,0.5,0,0.6-0.1c0.1-0.1,0.2-0.2,0.2-0.3c0-0.1,0-0.2-0.1-0.3
		c-0.1-0.1-0.1-0.1-0.2-0.2c-0.1,0-0.3-0.1-0.5-0.1h-0.6V24.7z"/>
</g>
<g>
	<path fill="#162E55" d="M69.5,4.6c0.5,0,1,0.1,1.5,0.4c0.5,0.3,0.8,0.6,1.1,1.1c0.3,0.5,0.4,1,0.4,1.5c0,0.5-0.1,1-0.4,1.5
		c-0.3,0.5-0.6,0.8-1.1,1.1c-0.5,0.3-1,0.4-1.5,0.4c-0.5,0-1-0.1-1.5-0.4c-0.5-0.3-0.8-0.6-1.1-1.1c-0.3-0.5-0.4-1-0.4-1.5
		c0-0.5,0.1-1,0.4-1.5S67.5,5.3,68,5C68.5,4.8,69,4.6,69.5,4.6z M69.5,5.1c-0.4,0-0.8,0.1-1.2,0.3s-0.7,0.5-0.9,0.9
		C67.1,6.7,67,7.1,67,7.6c0,0.4,0.1,0.8,0.3,1.2c0.2,0.4,0.5,0.7,0.9,0.9c0.4,0.2,0.8,0.3,1.2,0.3s0.8-0.1,1.2-0.3
		c0.4-0.2,0.7-0.5,0.9-0.9C71.9,8.4,72,8,72,7.6c0-0.4-0.1-0.8-0.3-1.2c-0.2-0.4-0.5-0.7-0.9-0.9C70.3,5.2,69.9,5.1,69.5,5.1z
		 M68.2,9.2V6h1.1c0.4,0,0.6,0,0.8,0.1c0.2,0.1,0.3,0.2,0.4,0.3s0.2,0.3,0.2,0.5c0,0.2-0.1,0.4-0.3,0.6c-0.2,0.2-0.4,0.3-0.7,0.3
		c0.1,0,0.2,0.1,0.3,0.2c0.1,0.1,0.3,0.3,0.5,0.6l0.4,0.6h-0.6L70,8.7c-0.2-0.4-0.4-0.6-0.5-0.7c-0.1-0.1-0.2-0.1-0.4-0.1h-0.3v1.3
		H68.2z M68.7,7.4h0.6c0.3,0,0.5,0,0.6-0.1c0.1-0.1,0.2-0.2,0.2-0.3c0-0.1,0-0.2-0.1-0.3c-0.1-0.1-0.1-0.1-0.2-0.2
		c-0.1,0-0.3-0.1-0.5-0.1h-0.6V7.4z"/>
</g>
</svg>
