<?xml version="1.0" encoding="utf-8"?>
<!-- Generator: Adobe Illustrator 16.0.0, SVG Export Plug-In . SVG Version: 6.00 Build 0)  -->
<!DOCTYPE svg PUBLIC "-//W3C//DTD SVG 1.1//EN" "http://www.w3.org/Graphics/SVG/1.1/DTD/svg11.dtd">
<svg version="1.1" id="Layer_1" xmlns="http://www.w3.org/2000/svg" xmlns:xlink="http://www.w3.org/1999/xlink" x="0px" y="0px"
	 width="437.978px" height="206.99px" viewBox="0 0 437.978 206.99" enable-background="new 0 0 437.978 206.99"
	 xml:space="preserve">
<g>
	<g>
		<polygon fill="#C85327" points="88.918,100.969 69.246,71.706 62.455,71.706 62.455,124.211 68.826,124.211 68.826,81.017 
			88.848,111.33 109.08,80.946 109.08,124.211 115.381,124.211 115.381,71.706 108.66,71.706 		"/>
		<path fill="#C85327" d="M150.727,89.207v21.143c0,2.52-0.91,4.655-2.73,6.406c-1.82,1.75-4.037,2.625-6.651,2.625
			c-2.567,0-4.737-0.875-6.511-2.625c-1.773-1.75-2.66-3.886-2.66-6.406V89.207h-6.161v21.772c0,3.874,1.33,7.164,3.99,9.871
			c2.661,2.707,5.927,4.061,9.801,4.061c4.48,0,8.121-1.727,10.921-5.181v5.391c0,3.64-0.852,6.464-2.555,8.471
			s-4.235,3.01-7.596,3.01c-4.947,0-9.171-1.517-12.671-4.55v6.721c3.454,2.24,7.514,3.36,12.181,3.36
			c5.414,0,9.58-1.575,12.497-4.726s4.375-7.246,4.375-12.286V89.207H150.727z"/>
	</g>
</g>
<g>
	<polygon points="192.417,100.969 172.745,71.706 165.954,71.706 165.954,124.211 172.325,124.211 172.325,81.017 192.347,111.33 
		212.579,80.946 212.579,124.211 218.88,124.211 218.88,71.706 212.159,71.706 	"/>
	<path d="M243.585,88.507c-5.041,0-9.078,1.715-12.111,5.146c-3.034,3.43-4.55,7.806-4.55,13.126c0,5.32,1.505,9.672,4.516,13.056
		s7.059,5.076,12.146,5.076c6.441,0,11.178-2.73,14.211-8.191l-4.34-3.01c-1.4,2.147-2.824,3.652-4.271,4.515
		c-1.447,0.864-3.244,1.295-5.391,1.295c-3.173,0-5.694-0.968-7.561-2.905s-2.964-4.562-3.291-7.876h26.463
		c0.047-0.467,0.07-1.144,0.07-2.03c0-5.414-1.423-9.801-4.27-13.161C252.359,90.188,248.486,88.507,243.585,88.507z
		 M233.084,103.909c0.467-3.08,1.61-5.53,3.43-7.351c1.82-1.82,4.224-2.73,7.211-2.73c2.94,0,5.286,0.898,7.036,2.695
		c1.75,1.797,2.789,4.259,3.115,7.386H233.084z"/>
	<path d="M273.474,94.528l-0.28-5.321h-5.67v35.004h6.161v-19.602c0-3.034,0.992-5.565,2.976-7.596
		c1.983-2.03,4.282-3.045,6.896-3.045c1.914,0,3.547,0.374,4.9,1.12l3.01-4.48c-1.867-1.4-4.41-2.1-7.63-2.1
		C279.728,88.507,276.274,90.514,273.474,94.528z"/>
	<path d="M296.923,93.618c-2.987,3.407-4.48,7.771-4.48,13.091c0,5.321,1.494,9.685,4.48,13.091c2.987,3.407,7,5.111,12.042,5.111
		c3.593,0,6.604-0.957,9.031-2.871v-6.161c-2.194,2.521-4.994,3.781-8.401,3.781c-3.407,0-6.103-1.214-8.086-3.641
		s-2.975-5.531-2.975-9.311s0.992-6.884,2.975-9.311c1.983-2.427,4.679-3.64,8.086-3.64c3.313,0,6.114,1.26,8.401,3.78v-6.23
		c-2.427-1.867-5.438-2.8-9.031-2.8C303.923,88.507,299.91,90.211,296.923,93.618z"/>
	<path d="M339.764,88.507c-5.041,0-9.078,1.715-12.111,5.146c-3.034,3.43-4.55,7.806-4.55,13.126c0,5.32,1.505,9.672,4.516,13.056
		s7.059,5.076,12.146,5.076c6.441,0,11.178-2.73,14.211-8.191l-4.34-3.01c-1.4,2.147-2.824,3.652-4.271,4.515
		c-1.447,0.864-3.244,1.295-5.391,1.295c-3.173,0-5.694-0.968-7.561-2.905s-2.964-4.562-3.291-7.876h26.463
		c0.047-0.467,0.07-1.144,0.07-2.03c0-5.414-1.423-9.801-4.271-13.161C348.539,90.188,344.665,88.507,339.764,88.507z
		 M329.263,103.909c0.467-3.08,1.61-5.53,3.43-7.351c1.82-1.82,4.224-2.73,7.211-2.73c2.94,0,5.286,0.898,7.036,2.695
		c1.75,1.797,2.789,4.259,3.115,7.386H329.263z"/>
	<path d="M380.014,88.507c-4.107,0-7.561,2.007-10.361,6.021l-0.28-5.321h-5.671v35.004h6.161v-19.602
		c0-3.034,0.992-5.565,2.976-7.596c1.983-2.03,4.282-3.045,6.896-3.045c1.914,0,3.547,0.374,4.9,1.12l3.01-4.48
		C385.778,89.207,383.235,88.507,380.014,88.507z"/>
</g>
<g>
	<g>
		<polygon fill="#FFFFFF" points="87.918,250.969 68.246,221.706 61.455,221.706 61.455,274.211 67.826,274.211 67.826,231.017 
			87.848,261.33 108.08,230.946 108.08,274.211 114.381,274.211 114.381,221.706 107.66,221.706 		"/>
		<path fill="#FFFFFF" d="M149.727,239.207v21.143c0,2.52-0.91,4.655-2.73,6.406c-1.82,1.75-4.037,2.625-6.651,2.625
			c-2.567,0-4.737-0.875-6.511-2.625c-1.773-1.75-2.66-3.886-2.66-6.406v-21.143h-6.161v21.772c0,3.874,1.33,7.164,3.99,9.871
			c2.661,2.707,5.927,4.061,9.801,4.061c4.48,0,8.121-1.727,10.921-5.181v5.391c0,3.64-0.852,6.464-2.555,8.471
			s-4.235,3.01-7.596,3.01c-4.947,0-9.171-1.517-12.671-4.55v6.721c3.454,2.24,7.514,3.36,12.181,3.36
			c5.414,0,9.58-1.575,12.497-4.726s4.375-7.246,4.375-12.286v-35.914H149.727z"/>
	</g>
</g>
<g>
	<polygon fill="#FFFFFF" points="191.417,250.969 171.745,221.706 164.954,221.706 164.954,274.211 171.325,274.211 
		171.325,231.017 191.347,261.33 211.579,230.946 211.579,274.211 217.88,274.211 217.88,221.706 211.159,221.706 	"/>
	<path fill="#FFFFFF" d="M242.585,238.507c-5.041,0-9.078,1.715-12.111,5.146c-3.034,3.43-4.55,7.806-4.55,13.126
		c0,5.32,1.505,9.672,4.516,13.056s7.059,5.076,12.146,5.076c6.441,0,11.178-2.73,14.211-8.191l-4.34-3.01
		c-1.4,2.147-2.824,3.652-4.271,4.515c-1.447,0.864-3.244,1.295-5.391,1.295c-3.173,0-5.694-0.968-7.561-2.905
		s-2.964-4.562-3.291-7.876h26.463c0.047-0.467,0.07-1.144,0.07-2.03c0-5.414-1.423-9.801-4.27-13.161
		C251.359,240.188,247.486,238.507,242.585,238.507z M232.084,253.909c0.467-3.08,1.61-5.53,3.43-7.351
		c1.82-1.82,4.224-2.73,7.211-2.73c2.94,0,5.286,0.898,7.036,2.695c1.75,1.797,2.789,4.259,3.115,7.386H232.084z"/>
	<path fill="#FFFFFF" d="M272.474,244.528l-0.28-5.321h-5.67v35.004h6.161v-19.602c0-3.034,0.992-5.565,2.976-7.596
		c1.983-2.03,4.282-3.045,6.896-3.045c1.914,0,3.547,0.374,4.9,1.12l3.01-4.48c-1.867-1.4-4.41-2.1-7.63-2.1
		C278.728,238.507,275.274,240.514,272.474,244.528z"/>
	<path fill="#FFFFFF" d="M295.923,243.618c-2.987,3.407-4.48,7.771-4.48,13.091c0,5.321,1.494,9.685,4.48,13.091
		c2.987,3.407,7,5.111,12.042,5.111c3.593,0,6.604-0.957,9.031-2.871v-6.161c-2.194,2.521-4.994,3.781-8.401,3.781
		c-3.407,0-6.103-1.214-8.086-3.641s-2.975-5.531-2.975-9.311s0.992-6.884,2.975-9.311c1.983-2.427,4.679-3.64,8.086-3.64
		c3.313,0,6.114,1.26,8.401,3.78v-6.23c-2.427-1.867-5.438-2.8-9.031-2.8C302.923,238.507,298.91,240.211,295.923,243.618z"/>
	<path fill="#FFFFFF" d="M338.764,238.507c-5.041,0-9.078,1.715-12.111,5.146c-3.034,3.43-4.55,7.806-4.55,13.126
		c0,5.32,1.505,9.672,4.516,13.056s7.059,5.076,12.146,5.076c6.441,0,11.178-2.73,14.211-8.191l-4.34-3.01
		c-1.4,2.147-2.824,3.652-4.271,4.515c-1.447,0.864-3.244,1.295-5.391,1.295c-3.173,0-5.694-0.968-7.561-2.905
		s-2.964-4.562-3.291-7.876h26.463c0.047-0.467,0.07-1.144,0.07-2.03c0-5.414-1.423-9.801-4.271-13.161
		C347.539,240.188,343.665,238.507,338.764,238.507z M328.263,253.909c0.467-3.08,1.61-5.53,3.43-7.351
		c1.82-1.82,4.224-2.73,7.211-2.73c2.94,0,5.286,0.898,7.036,2.695c1.75,1.797,2.789,4.259,3.115,7.386H328.263z"/>
	<path fill="#FFFFFF" d="M379.014,238.507c-4.107,0-7.561,2.007-10.361,6.021l-0.28-5.321h-5.671v35.004h6.161v-19.602
		c0-3.034,0.992-5.565,2.976-7.596c1.983-2.03,4.282-3.045,6.896-3.045c1.914,0,3.547,0.374,4.9,1.12l3.01-4.48
		C384.778,239.207,382.235,238.507,379.014,238.507z"/>
</g>
</svg>
